<svg width="741" height="612" viewBox="0 0 741 612" fill="none" xmlns="http://www.w3.org/2000/svg">
<path d="M253.952 298.983C260.709 277.942 270.759 259.175 279.65 239.052C282.224 233.229 285.921 226.749 288.799 220.978C303.81 191.332 318.304 161.426 332.273 131.275C344.126 105.218 353.402 77.5828 365.71 51.6812C368.257 46.3256 376.796 21.4282 382.429 20.0326C389.807 22.4803 381.988 40.6019 387.172 44.1436C388.182 42.0387 385.667 37.1738 388.757 35.7781C389.304 35.8331 389.839 35.8717 390.335 36.1353C396.471 39.4014 407.789 70.2562 411.302 78.4833C425.431 111.484 440.103 144.249 455.313 176.766C456.688 179.678 458.642 182.209 460.028 185.07L479.58 226.208C481.986 231.247 485.576 236.682 487.663 241.687C494.842 258.901 505.429 276.091 511.883 293.473C518.096 285.552 537.779 269.887 546.108 263.381C571.923 243.299 598.39 224.072 625.468 205.729C628.504 203.658 635.664 197.616 638.284 196.346C639.112 195.557 641.417 194.044 642.477 193.315C646.595 189.926 650.108 188.07 654.388 185.127L674.618 171.027L694.612 157.507C703.86 151.131 713.209 144.133 723.702 140.093C726.111 139.164 729.223 137.269 731.054 139.738C732.06 146.81 719.472 152.466 714.501 155.695C717.685 155.062 719.277 154.613 722.348 153.557C720.796 156.613 719.305 159.355 717.16 162.066C716.646 169.696 714.349 171.75 713.332 177.939L713.614 177.449C716.118 173.022 723.872 150.985 726.6 148.921C734.542 149.254 725.768 173.128 724.599 177.341L711.921 221.965C707.572 237.528 704.004 253.674 699.72 269.422L681.554 335.661C666.828 390.192 654.316 445.048 643.69 500.544C642.745 505.474 642.271 510.725 640.835 515.513C645.325 516.993 659.816 522.267 660.308 527.417C659.367 529.1 658.028 529.328 656.154 529.396C649.844 529.635 643.14 528.586 636.876 528.799C640.704 531.079 646.917 531.901 649.348 535.726C649.562 537.105 649.67 536.468 649.015 537.699C646.555 539.056 640.419 537.934 637.542 537.539C637.285 541.097 636.026 548.093 633.309 550.59C631.981 550.985 632.614 551.024 631.344 550.463C628.486 547.315 628.424 539.121 628.479 534.973C626.402 534.879 624.578 534.611 622.534 534.398C619.404 534.072 618.449 533.073 616.72 535.99L615.83 536.121C614.419 534.897 615.128 533.714 614.44 533.558C607.909 532.056 596.975 530.174 590.814 529.251C539.949 521.126 488.481 517.348 436.973 517.956C414.106 518.057 392.336 518.55 369.487 520.12C333.378 522.704 297.36 526.432 261.487 531.304C246.164 533.602 230.897 536.247 215.696 539.248C209.808 540.442 204.001 542.013 198.11 543.207C191.905 544.466 185.65 545.469 179.437 546.699C174.687 547.64 140.324 555.252 137.941 553.207C137.186 552.559 137.245 552.291 137.165 551.354C139.595 545.809 153.379 544.528 158.68 542.534C165.899 539.819 174.161 538.936 181.338 536.631C184.294 535.983 186.731 535.212 189.603 534.318C191.089 534.644 190.983 534.376 191.855 535.281C192.182 535.82 192.04 535.621 192.662 535.965C194.242 535.857 197.275 535.212 198.517 534.166L198.696 534.127C202.03 534.528 221.647 530.305 226.587 529.418C243 526.472 258.542 523.92 275.124 521.868C312.019 517.059 349.086 513.66 386.239 511.681C403.205 510.743 418.459 511.438 436.079 510.139C438.789 510.298 447.382 510.193 449.774 509.523C448.869 508.941 445.704 509.125 444.524 509.194C403.338 507.812 362.185 511.536 321.222 515.242C306.4 516.584 291.516 517.724 276.733 519.541C267.505 520.674 258.332 522.259 249.138 523.627C240.001 524.984 231.055 526.631 221.998 528.47C218.633 529.154 215.059 529.61 211.754 530.497C211.208 529.704 211.254 529.755 210.401 529.302L209.568 529.646C207.419 529.089 181.224 534.499 177.581 535.183C168.569 538.01 155.889 538.679 146.374 540.847C141.683 541.915 123.984 545.976 120.46 544.018C116.926 538.737 137.529 528.387 141.798 526.222C126.813 489.973 119.64 451.87 108.352 414.683L52.1602 229.48C51.6584 227.802 51.065 226.2 50.4966 224.544C45.1949 209.092 39.9319 193.425 35.4952 177.711C34.8361 175.377 34.7856 171.811 34.7718 169.397C25.8356 162.982 23.412 158.268 17.6133 149.303C16.6753 147.852 16.1386 146.269 16.5603 144.577C18.9364 142.246 21.959 145.397 24.6814 146.125C26.6339 146.647 30.2773 147.164 31.8517 148.146C40.9254 153.653 49.5566 160.044 58.5488 165.665C67.1705 171.054 75.5726 176.444 83.999 182.156L129.246 213.033C132.331 215.131 135.128 217.447 138.263 219.534C140.265 220.557 141.127 221.261 142.921 222.646C154.153 228.499 169.988 241.256 181.273 248.679C205.329 264.502 231.773 280.688 253.952 298.983ZM137.094 220.559L135.444 220.151L135.218 220.363C136.438 221.921 139.521 223.901 141.484 224.033L141.479 223.614C140.329 222.89 137.876 221.471 137.094 220.559ZM57.8693 188.12C63.8179 199.026 67.5482 211.842 71.7272 223.426C79.6543 245.04 86.9915 266.866 93.7307 288.88C94.3256 290.787 95.0901 292.983 95.8228 294.86C98.3772 301.558 99.4377 308.678 101.64 315.506C104.671 324.899 107.753 334.31 110.725 343.722C113.649 352.98 115.927 362.553 118.713 371.88L135.555 428.147C137.029 433.065 139.85 439.735 140.751 444.61C145.26 469.007 159.005 495.836 160.214 520.327C197.264 508.706 235.392 500.852 274.018 496.885L277.135 496.563C280.714 495.915 286.473 495.51 290.287 495.105C301.944 493.798 313.635 492.825 325.348 492.188C404.934 486.578 484.885 489.278 563.909 500.24C580.589 502.687 599.816 504.992 616.061 509.759C616.832 505.289 617.027 500.693 617.747 496.241C622.766 465.207 630.744 434.965 639.008 404.622L660.673 326.177C662.211 320.729 663.51 314.698 665.095 309.435C667.157 302.588 669.462 295.775 671.311 288.866C675.678 272.554 680.077 256.204 685.295 240.141C686.876 235.274 688.045 230.197 689.611 225.312C694.394 210.694 699.293 196.116 704.312 181.577C706.367 175.636 708.292 170.806 710.278 164.62C704.42 172.34 689.253 183.43 681.3 189.911L622.093 237.721L577.658 273.494C567.249 281.968 556.785 291.006 545.688 299.011C539.305 303.617 526.624 314.091 518.671 315.774C518.667 315.774 517.426 315.397 517.426 315.397C515.082 315.864 512.871 316.829 510.469 316.453C508.602 314.763 512.799 310.417 514.087 308.856C511.681 306.704 511.435 305.962 510.186 303.068C508.323 303.851 507.223 304.546 505.371 303.942C503.677 301.885 505.732 300.109 507.165 298.523C501.188 291.565 490.066 271.099 485.547 262.318C483.26 259.096 481.813 255.399 479.913 251.998C472.42 238.588 466.479 224.195 458.971 210.757C456.565 206.447 454.72 202.412 451.927 198.272C456.848 210.235 463.82 222.989 469.294 234.877C471.128 238.859 473.802 242.723 475.749 246.668C478.585 252.276 480.829 258.619 484.168 264.086C487.591 270.685 506.282 310.137 505.132 314.382C505.002 314.868 504.698 315.253 504.397 315.643C499.527 317.41 493.843 305.826 491.546 302.141C469.095 266.135 451.996 226.259 434.672 187.578C419.725 154.212 404.786 120.226 393.432 85.5015C390.769 77.3479 387.404 69.4871 385.638 61.0013C380.75 76.3161 375.24 90.433 369.255 105.322C366.535 112.088 363.217 118.456 360.318 125.082L342.048 166.602C340.332 170.552 338.907 174.636 337.123 178.544C325.257 204.541 312.614 230.122 299.471 255.484C292.948 268.074 286.811 280.425 279.161 292.458C274.91 299.143 272.263 306.051 265.64 311.103C266.865 312.909 267.732 313.837 267.379 316.037C265.393 318.758 262.447 316.958 260.213 315.458L259.293 314.851C258.545 316.384 258.894 316.267 257.668 316.988C246.681 315.876 211.743 294.224 201.018 287.475C195.72 284.14 188.056 279.954 182.701 276.586C158.338 261.218 134.458 245.097 111.094 228.248C93.7101 215.883 74.1633 201.809 57.8693 188.12ZM386.196 500.063C418.575 499.716 450.65 499.22 482.956 501.565C495.084 502.448 506.807 502.799 518.989 504.554L595.181 515.683C600.594 516.436 610.594 519.158 615.124 518.242L615.07 517.533C610.949 515.904 605.648 515.376 601.201 514.449C575.881 509.169 550.062 507.149 524.485 503.498C516.804 502.401 508.142 502.386 500.403 501.46C474.175 498.322 448.493 497.761 422.117 497.367C412.851 497.215 403.584 497.178 394.322 497.254C390.36 497.273 383.97 497.131 380.16 497.479C372.975 497.877 365.478 497.678 358.203 497.939C345.072 498.485 331.947 499.202 318.834 500.088C309.47 500.667 299.91 501.793 290.605 502.727C265.514 505.249 240.833 508.619 216.154 513.885C203.856 516.508 191.335 518.872 179.296 522.628C174.781 524 165.542 525.365 162.135 528.021L161.855 529.204L162.071 528.086L162.067 529.4C165.082 530.909 167.869 529.309 170.933 528.987C177.301 528.318 183.327 526.396 189.643 525.564C206.761 523.718 223.78 519.581 240.696 517.265C257.981 514.898 275.688 512.281 292.979 510.132C307.48 508.445 322.001 506.936 336.537 505.593C345.213 504.873 353.949 504.359 362.62 503.512C371.169 502.68 377.534 500.19 386.196 500.063ZM108.552 365.647C108.752 359.591 102.744 346.037 100.657 339.276L76.2666 262.311C73.8326 254.652 71.8654 246.852 69.374 239.351C65.3651 227.28 60.4472 215.41 56.6482 203.219C54.6394 196.774 52.5379 191.597 51.7521 184.767C49.9575 182.736 42.7479 175.529 40.4041 174.763L40.6414 175.3C41.2156 176.569 42.1643 177.952 42.8666 179.439C45.3732 184.798 47.7294 190.227 49.9314 195.718C50.9036 198.203 51.8053 200.793 52.5571 203.349C57.362 219.693 64.3614 235.291 70.2054 251.208C83.3133 286.911 93.5144 323.622 106.302 359.434C106.957 361.276 107.355 364.232 108.552 365.647ZM305.411 216.132C307.379 211.103 309.848 206.243 312.198 201.38C320.458 184.286 329.653 167.572 338.365 150.707C351.514 125.254 362.598 98.8172 373.756 72.4595C374.505 70.6908 375.562 68.2906 376.065 66.5082L375.721 66.1687C371.694 70.9572 367.761 82.5074 364.566 88.3875C349.144 116.774 336.101 146.037 323.077 175.571C317.332 188.599 309.711 202.146 305.007 215.506L305.179 216.088L305.411 216.132ZM296.386 243.672C297.845 240.907 306.036 225.357 306.016 223.229C304.558 224.779 295.947 241.836 296.386 243.672ZM94.4363 337.028C94.1718 333.584 89.7272 324.257 88.3701 319.11C87.459 322.694 92.3703 333.825 94.4363 337.028ZM669.187 326.91C670.703 324.872 674.581 314.006 674.364 311.306C673.246 314.12 668.753 324.781 669.187 326.91ZM452.318 506.614C457.832 507.757 466.627 508.105 472.539 508.724C492.316 510.765 512.144 512.245 532 513.168C535.322 513.353 538.64 513.403 541.961 513.523C550.63 513.827 558.764 516.085 567.448 516.639C560.367 514.648 552.96 513.295 545.728 511.981C539.703 510.888 533.437 510.935 527.326 510.363C513.421 508.948 499.477 507.931 485.514 507.316C478.651 506.957 469.75 505.915 463.15 505.926C460.14 505.343 448.518 505.452 445.28 505.651C442.661 505.749 440.218 505.597 437.657 505.665C441.004 506.74 447.893 506.976 451.362 506.643L452.318 506.614ZM137.575 537.293C139.708 536.559 143.166 535.498 145.019 534.412L145.238 533.96L144.729 533.428C144.413 533.428 143.757 533.414 143.471 533.457C142.078 534.188 136.9 536.526 136.348 537.261L136.871 537.529L137.575 537.293ZM382.708 506.61C387.56 506.567 392.415 506.632 397.267 506.809L400.878 506.53C398.49 505.307 390.143 505.98 387.035 506.071C384.705 505.901 383.283 505.875 381.033 506.516L381.17 506.777L382.708 506.61ZM646.125 524.941L646.19 524.091C645.307 523.559 641.229 522.419 639.775 521.879L639.532 522.947C640.94 524.666 643.505 524.058 646.125 524.941ZM699.453 232.83C700.914 230.854 702.991 224.197 702.383 221.74C701.45 223.92 698.772 230.733 699.453 232.83ZM105.756 334.916C105.356 332.691 103.049 323.553 101.559 322.326C101.698 324.564 104.247 333.511 105.756 334.916ZM70.6928 187.939C69.1496 186.235 67.3456 184.997 65.5897 183.525C56.1695 175.626 46.7518 167.8 36.6542 160.765C33.8424 158.807 31.3568 156.232 28.4434 154.372C29.0767 155.365 30.2053 157.124 31.055 157.847C43.4053 168.354 57.5701 177.984 70.0227 188.348C72.8619 190.221 82.496 198.071 83.8919 198.177C83.4765 196.864 72.588 189.09 70.6928 187.939ZM100.197 376.57C99.2716 378.763 99.0845 380.547 99.9836 382.846C100.579 381.058 101.281 378.304 100.197 376.57ZM115.33 366.711C114.209 363.356 113.533 356.043 111.491 354.928C112.415 359.351 113.131 362.101 114.602 366.462L115.33 366.711ZM120.88 217.105C127.341 221.867 143.729 233.066 150.709 236.145L150.666 235.907C147.424 233.245 139.779 228.952 135.776 226.262C132.028 223.742 124.91 218.473 121.304 216.65L120.763 216.436C116.092 214.572 111.339 209.938 109.579 209.486L109.423 209.883C111.755 212.701 117.528 215.576 120.88 217.105ZM123.692 416.337C123.841 414.159 121.684 407.499 119.792 406.363C119.742 406.71 119.692 407.058 119.642 407.405C121.226 409.566 122.158 414.553 123.692 416.337ZM480.018 246.363C480.876 250.115 484.089 254.682 485.608 258.358L486.205 258.778C486.379 256.597 481.892 247.49 480.018 246.363ZM631.768 513.733C633.193 512.057 634.109 507.341 634.521 505.057C634.38 504.848 634.185 504.496 634.011 504.348C633.229 506.675 631.703 510.707 631.272 512.951L631.768 513.733ZM284.268 252.278C285.85 250.724 296.397 233.712 297.424 230.893L296.945 230.546C295.235 233.362 293.554 236.315 291.813 239.083C291.613 241.183 285.25 247.454 283.927 252.219C280.938 257.027 281.523 259.183 279.998 263.346C279.014 266.032 274.758 274.54 273.291 276.908C268.89 285.794 263.316 294.049 256.72 301.451C259.571 303.631 260.823 304.885 263.134 307.648C264.348 302.397 266.468 298.153 268.529 293.27C270.877 287.779 273.103 282.238 275.208 276.65C276.383 274.239 280.492 266.052 281.039 263.837C282.317 258.665 282.012 257.712 284.268 252.278ZM648.516 398.372C647.033 400.768 646.468 406.16 646.059 409.157C646.146 409.316 646.305 409.667 646.428 409.761C647.029 408.976 648.668 399.284 648.516 398.372ZM681.496 281.833C681.029 283.423 680.392 285.069 680.479 286.682L681.014 287.662C681.666 285.473 681.818 284.925 681.988 282.647C681.879 282.453 681.633 281.968 681.496 281.833ZM304.005 198.521C304.851 196.475 305.924 194.139 306.333 191.998C306.203 191.785 306.023 191.438 305.857 191.287C304.694 193.459 303.616 195.47 303.521 197.992C303.9 198.506 303.69 198.394 304.005 198.521ZM91.0012 346.501C91.0164 344.822 90.7085 343.621 89.6882 342.249L88.7981 341.938C89.0282 343.387 89.7507 345.644 91.0012 346.501ZM390.483 517.775L390.407 517.316C388.851 516.993 385.979 517.276 384.285 517.37L384.719 518.003C386.974 518.05 388.233 517.989 390.483 517.775ZM105.513 375.035C103.74 368.774 98.4032 349.913 94.8987 344.91C97.7071 355.479 101.537 365.647 104.779 375.951C105.294 377.366 105.619 378.311 106.34 379.657L106.721 379.708L105.986 379.078L106.739 379.281C106.437 377.464 106.137 376.722 105.513 375.035ZM615.247 525.973C615.153 525.372 615.124 524.243 614.722 524.174C610.308 523.45 595.749 521.192 592.141 521.275L592.402 522.006C593.589 522.473 613.257 525.802 615.247 525.973ZM86.3935 334.885C86.4372 332.061 86.9391 327.311 84.4216 325.537C84.9245 327.573 85.8142 333.71 86.3935 334.885ZM650.94 372.683C651.204 371.083 651.508 370.063 651.136 368.492L650.683 367.967C650.351 369.404 649.934 370.566 650.195 371.988L650.94 372.683ZM537.587 518.423L538.086 519.085C539.255 519.147 541.404 519.071 542.323 519.197L542.218 518.495C540.691 518.01 539.219 518.289 537.587 518.423ZM657.413 371.699C659.888 370.294 665.724 344.809 666.469 340.247C665.597 340.858 664.943 341.704 664.722 342.745C662.804 351.839 658.712 362.745 657.413 371.699ZM292.172 524.536C290 524.992 288.634 525.202 286.616 526.143L286.535 526.562C287.22 526.729 286.991 526.718 287.727 526.497C288.835 526.287 292.521 525.654 293.179 524.919C292.525 524.597 292.861 524.724 292.172 524.536ZM253.018 307.981C253.75 310.077 256.374 311.135 258.481 312.384C257.82 310.476 254.951 308.295 253.018 307.981ZM88.9634 197.271C90.3304 197.96 97.5135 201.418 98.6225 201.634C96.7034 199.586 91.7842 197.071 88.9634 197.271ZM185.472 268.635C184.263 266.627 180.525 264.245 178.519 262.933C169.673 257.15 161.822 250.061 152.912 244.361C138.575 235.19 123.939 226.576 110.23 216.456C104.539 212.254 98.4166 208.541 92.7205 204.346C90.5221 202.728 88.1316 200.231 85.3344 199.693C86.4636 201.708 87.9478 201.757 89.7457 203.15C118.798 225.652 149.806 245.765 180.729 265.587C182.012 266.41 184.234 268.278 185.472 268.635ZM705.408 205.045C704.616 206.603 701.935 212.508 702.072 214.017L702.369 214.337C703.993 212.046 704.533 208.448 705.835 205.498L705.408 205.045ZM619.346 517.851C619.397 519.197 619.169 519.082 619.849 519.885C622.176 520.24 629.597 521.973 631.019 521.887L630.852 520.83C630.179 520.482 620.099 517.898 619.346 517.851ZM290.947 248.801C289.942 250.289 283.719 263.46 283.467 264.935L283.912 265.062C284.673 263.8 291.578 250.36 291.953 249.145L290.947 248.801ZM431.499 145.371C432.703 148.866 439.086 165.027 441.517 166.237C441.004 164.265 432.573 146.328 431.499 145.371ZM389.484 49.7189C389.173 53.5049 394.481 63.8246 396.945 66.8705C396.515 64.5444 391.138 50.8354 389.484 49.7189ZM313.228 188.852C311.691 191.046 301.219 213.255 301.283 214.402L301.736 214.786C303.099 212.664 303.859 210.373 304.951 208.084C307.949 201.803 310.372 195.737 313.563 189.528C313.482 189.348 313.345 188.977 313.228 188.852ZM291.022 237.363C293.396 233.378 295.139 228.77 297.225 224.693C297.778 223.295 300.641 217.402 300.545 216.579C299.449 217.349 288.659 239.362 288.398 241.106L288.771 241.252C290.101 239.673 290.048 238.846 291.022 237.363ZM321.956 191.784C315.805 200.663 312.283 212.382 307.087 221.692C307.24 222.202 307.088 222.081 307.325 222.224C310.302 218.77 312.131 212.878 314.164 208.538C316.691 203.133 319.374 197.802 322.208 192.552C322.088 191.88 322.233 192.107 321.956 191.784ZM108.799 367.935C109.083 371.434 117.959 403.059 119.194 404.528L119.945 404.872C119.207 400.731 116.992 394.25 115.67 390.211C114.402 386.334 111.08 369.94 108.799 367.935ZM405.224 89.3806C405.553 91.4456 422.102 125.278 422.63 125.655C422.207 121.659 407.807 90.9715 405.224 89.3806ZM468.588 243.123C469.073 244.89 469.605 246.588 470.361 248.26C472.489 252.955 487.048 281.644 489.396 283.021C489.842 283.281 490.218 283.343 490.717 283.39C490.439 282.428 488.966 279.488 488.398 278.978C484.023 275.055 471.443 244.946 468.588 243.123ZM447.375 179.049C450.964 187.219 454.905 195.084 458.722 203.105C462.398 210.829 465.658 218.352 470.028 225.776C471.338 228 472.507 230.828 474.092 232.828C472.377 226.351 466.001 215.141 462.915 208.896C460.531 204.079 450.291 181.392 447.375 179.049ZM680.059 177.705C672.302 183.067 664.545 188.192 657.207 194.152C654.667 196.214 651.096 197.815 648.531 199.96C643.975 203.098 639.377 207.273 634.727 210.14C617.436 220.805 600.785 232.411 584.601 244.683C582.904 245.969 581.392 247.749 579.822 249.187C578.023 250.853 575.61 252.098 573.96 253.956L574.051 254.549L574.181 254.643C582.068 248.271 591.364 241.924 599.544 235.787C607.052 230.158 614.491 224.128 622.201 218.777C625.801 216.277 631.098 213.864 634.8 211.277C645.629 203.716 656.382 196.486 666.788 188.332C671.687 184.492 675.102 182.596 680.197 178.189L680.222 177.803L680.059 177.705ZM566.047 260.904C562.056 263.355 558.218 266.628 554.23 269.261C544.201 275.881 534.754 283.165 525.339 290.627C522.51 292.87 516.963 297.082 514.561 299.487C514.622 300.799 515.281 301.57 516.225 302.626L517.242 301.226C523.32 292.698 566.134 262.383 566.395 261.014L566.047 260.904ZM636.876 444.274C635.223 449.948 633.175 457.418 632.057 463.093C629.904 473.994 628.623 484.783 625.83 495.579C625.154 498.185 620.935 509.292 621.311 510.787L621.948 511.051C623.044 511.395 624.43 512.01 625.468 511.717C627.144 508.973 627.343 500.78 627.871 497.066C629.242 487.421 630.964 477.668 632.433 468.088C633.07 463.955 637.767 446.384 636.876 444.274ZM699.283 235.118C696.996 240.861 696.352 246.816 694.626 252.758C692.26 260.897 689.629 268.934 687.325 277.095C682.104 295.866 677.183 314.719 672.562 333.647C671.944 336.215 668.568 345.648 669.284 347.507L669.487 347.557C670.569 342.861 671.792 339.587 673.073 335.09L680.417 308.548C684.531 293.945 687.791 279.08 692.289 264.53C693.378 261.004 699.869 237.42 699.695 235.552L699.283 235.118ZM380.016 37.1702C378.503 43.8689 357.167 88.4327 357.805 90.0928C358.402 89.9357 358.428 89.99 358.941 89.6838C360.72 82.9015 371.043 64.4033 375.034 57.6496C376.09 55.8639 380.844 50.4369 382.491 48.3512C379.806 42.1368 381.087 42.2714 380.016 37.1702ZM643.657 208.51L557.346 275.155C550.453 280.449 543.611 285.762 536.907 291.275C533.321 294.221 522.966 302.502 518.83 303.69C518.262 303.504 517.698 303.306 517.137 303.097C517.303 304.292 518.244 305.809 518.686 307.158L519.065 307.767C520.563 307.74 529.034 300.405 530.98 298.973C536.595 294.837 542.356 290.799 547.902 286.563C556.21 280.354 563.963 273.464 571.927 267.077L609.147 237.78C613.811 234.085 642.517 211.21 643.809 208.625L643.657 208.51ZM418.929 131.623C419.971 135.161 425.047 149.786 426.603 152.047C433.116 161.513 452.896 215.882 458.671 220.225C456.518 213.068 452.958 206.215 449.937 199.349C442.74 182.991 436.036 166.473 427.743 150.627C425.652 146.628 421.646 134.096 418.929 131.623ZM171.966 253.639C180.556 260.565 245.052 305.082 250.392 305.865C249.514 303.867 240.571 298.644 238.119 296.872C220.613 284.225 202.476 272.232 184.22 260.692C181.82 259.175 174.216 253.837 171.966 253.639ZM661.853 368.297C660.398 372.357 659.454 376.917 658.26 381.134C655.362 391.029 652.695 400.992 650.26 411.014C649.374 414.665 648.773 418.346 647.908 421.976C645.028 434.086 641.511 446.185 639.149 458.406C636.989 469.59 633.323 480.342 632.556 491.732C632.412 493.892 631.261 496.712 631.301 498.858C631.988 499.075 631.735 499.104 632.375 498.981C634.517 493.429 634.973 486.882 636.583 481.106C639.188 471.765 641.54 462.579 643.541 453.097C644.938 446.456 646.855 439.652 648.27 432.985C651.056 418.921 654.323 404.915 657.341 390.891C658.329 386.306 663.061 372.053 662.233 368.655L661.853 368.297ZM106.609 371.532C108.54 384.094 112.941 398.05 116.494 410.304C118.279 416.46 121.4 423.5 123.58 429.649C129.858 447.223 135.369 465.066 140.097 483.122C141.631 489.101 144.167 497.16 144.714 503.154C145.313 509.73 146.084 518.734 146.246 525.343C148.158 524.442 150.498 523.255 152.452 522.596L156.595 521.141C148.281 505.474 144.236 493.035 140.375 475.898C136.632 460.705 131.164 446.268 125.825 431.607C122.015 421.147 118.66 409.472 114.611 399.132C112.862 394.662 108.273 373.609 106.609 371.532Z" fill="#92C8DD"/>
<path d="M141.479 223.614L141.484 224.033C139.521 223.901 136.438 221.921 135.218 220.363L135.444 220.151L137.094 220.559C137.876 221.471 140.329 222.89 141.479 223.614Z" fill="#BDE1EF" fill-opacity="0.0509804"/>
<path d="M642.477 193.314L643.563 193.802C643.856 195.934 640.556 197.225 638.664 197.014L638.284 196.346C639.112 195.557 641.417 194.044 642.477 193.314Z" fill="#9FCEE5"/>
<path d="M138.263 219.534C140.265 220.557 141.127 221.261 142.921 222.646L141.479 223.614C140.329 222.89 137.876 221.471 137.094 220.559L138.263 219.534Z" fill="#93C7DB"/>
<path d="M643.657 208.51L643.809 208.625C642.517 211.21 613.811 234.085 609.147 237.78L571.927 267.077C563.963 273.464 556.21 280.354 547.902 286.563C542.356 290.799 536.595 294.837 530.98 298.973C529.033 300.405 520.563 307.74 519.065 307.767L518.686 307.159C518.244 305.809 517.303 304.293 517.137 303.097C517.698 303.306 518.262 303.504 518.83 303.69C522.966 302.502 533.321 294.222 536.907 291.275C543.611 285.762 550.453 280.45 557.346 275.155L643.657 208.51Z" fill="#43565F" fill-opacity="0.01"/>
<path d="M85.3344 199.693C88.1316 200.231 90.5221 202.728 92.7205 204.346C98.4165 208.541 104.539 212.254 110.23 216.456C123.939 226.576 138.575 235.19 152.912 244.361C161.822 250.061 169.673 257.15 178.519 262.933C180.525 264.245 184.263 266.627 185.472 268.635C184.234 268.278 182.012 266.41 180.729 265.587C149.806 245.765 118.798 225.652 89.7456 203.15C87.9478 201.757 86.4636 201.708 85.3344 199.693Z" fill="#93C7DB" fill-opacity="0.0156863"/>
<path d="M171.966 253.639C174.216 253.837 181.82 259.175 184.22 260.692C202.476 272.232 220.613 284.225 238.119 296.872C240.571 298.644 249.514 303.867 250.392 305.865C245.052 305.082 180.556 260.565 171.966 253.639Z" fill="#43565F" fill-opacity="0.0117647"/>
<path d="M418.929 131.623C421.646 134.096 425.652 146.628 427.743 150.627C436.036 166.473 442.74 182.991 449.937 199.349C452.958 206.215 456.518 213.068 458.671 220.225C452.897 215.882 433.116 161.513 426.603 152.048C425.048 149.786 419.971 135.161 418.929 131.623Z" fill="#92C8DD" fill-opacity="0.01"/>
<path d="M680.059 177.705L680.222 177.803L680.197 178.189C675.102 182.596 671.687 184.492 666.788 188.332C656.382 196.486 645.629 203.716 634.8 211.278C631.098 213.864 625.801 216.277 622.201 218.777C614.491 224.128 607.052 230.158 599.544 235.787C591.364 241.924 582.069 248.271 574.181 254.643L574.051 254.549L573.96 253.956C575.61 252.098 578.023 250.853 579.822 249.187C581.392 247.749 582.904 245.969 584.601 244.683C600.785 232.411 617.436 220.805 634.727 210.14C639.377 207.273 643.975 203.098 648.531 199.96C651.096 197.815 654.667 196.214 657.207 194.152C664.545 188.192 672.302 183.067 680.059 177.705Z" fill="#9FCEE5" fill-opacity="0.0313725"/>
<path d="M699.282 235.118L699.695 235.552C699.869 237.42 693.378 261.004 692.289 264.53C687.791 279.08 684.531 293.945 680.417 308.548L673.073 335.09C671.792 339.587 670.569 342.862 669.487 347.557L669.284 347.507C668.568 345.648 671.944 336.215 672.562 333.648C677.183 314.719 682.103 295.866 687.324 277.095C689.629 268.934 692.26 260.897 694.626 252.758C696.352 246.816 696.996 240.861 699.282 235.118Z" fill="#9FCEE5" fill-opacity="0.0196078"/>
<path d="M636.876 444.274C637.766 446.384 633.07 463.955 632.433 468.088C630.964 477.668 629.242 487.421 627.871 497.066C627.343 500.78 627.144 508.973 625.468 511.717C624.43 512.01 623.044 511.395 621.948 511.051L621.311 510.787C620.935 509.292 625.154 498.185 625.83 495.579C628.623 484.783 629.904 473.994 632.057 463.093C633.175 457.418 635.223 449.949 636.876 444.274Z" fill="#6F92A3" fill-opacity="0.0117647"/>
<path d="M566.047 260.905L566.395 261.014C566.134 262.383 523.32 292.698 517.242 301.226L516.225 302.626C515.281 301.57 514.622 300.799 514.561 299.487C516.963 297.082 522.51 292.87 525.339 290.627C534.754 283.165 544.201 275.881 554.23 269.261C558.218 266.628 562.056 263.355 566.047 260.905Z" fill="#6F92A3" fill-opacity="0.027451"/>
<path d="M451.927 198.272C454.72 202.412 456.565 206.447 458.971 210.757C466.479 224.195 472.42 238.588 479.913 251.998C481.813 255.399 483.26 259.096 485.547 262.319L484.168 264.087C480.829 258.619 478.585 252.276 475.749 246.668C473.802 242.723 471.128 238.859 469.294 234.877C463.82 222.99 456.847 210.235 451.927 198.272Z" fill="#93C7DB" fill-opacity="0.0156863"/>
<path d="M447.375 179.049C450.291 181.392 460.531 204.079 462.915 208.896C466.001 215.141 472.377 226.351 474.092 232.828C472.507 230.828 471.338 228 470.028 225.776C465.658 218.351 462.398 210.829 458.722 203.105C454.904 195.084 450.964 187.219 447.375 179.049Z" fill="#93C7DB" fill-opacity="0.0352941"/>
<path d="M28.4434 154.372C31.3568 156.232 33.8424 158.807 36.6542 160.765C46.7517 167.8 56.1695 175.626 65.5897 183.525C67.3456 184.997 69.1496 186.235 70.6928 187.939L70.0227 188.348C57.5701 177.985 43.4053 168.354 31.055 157.847C30.2053 157.124 29.0767 155.365 28.4434 154.372Z" fill="#92C8DD" fill-opacity="0.0235294"/>
<path d="M468.588 243.123C471.443 244.946 484.023 275.055 488.398 278.978C488.966 279.488 490.438 282.428 490.717 283.39C490.218 283.343 489.841 283.281 489.396 283.021C487.048 281.645 472.489 252.955 470.361 248.26C469.605 246.588 469.073 244.891 468.588 243.123Z" fill="#9FCEE5" fill-opacity="0.0313725"/>
<path d="M405.224 89.3806C407.807 90.9716 422.207 121.659 422.631 125.655C422.102 125.278 405.553 91.4457 405.224 89.3806Z" fill="#93C7DB" fill-opacity="0.0352941"/>
<path d="M108.799 367.935C111.08 369.94 114.402 386.334 115.67 390.211C116.992 394.25 119.207 400.731 119.945 404.872L119.194 404.528C117.959 403.059 109.083 371.434 108.799 367.935Z" fill="#9FCEE5" fill-opacity="0.0156863"/>
<path d="M94.8987 344.91C98.4032 349.913 103.74 368.774 105.513 375.035L104.779 375.951C101.537 365.647 97.7071 355.479 94.8987 344.91Z" fill="#93C7DB" fill-opacity="0.0117647"/>
<path d="M121.304 216.65C124.91 218.473 132.028 223.742 135.776 226.262C139.779 228.952 147.424 233.246 150.666 235.907L150.709 236.146C143.729 233.066 127.341 221.867 120.88 217.105L121.304 216.65Z" fill="#9FCEE5" fill-opacity="0.105882"/>
<path d="M283.927 252.219L284.268 252.278C282.012 257.712 282.317 258.665 281.039 263.837C280.492 266.053 276.383 274.239 275.208 276.651C274.747 276.78 273.807 276.851 273.291 276.908C274.758 274.54 279.014 266.032 279.998 263.346C281.523 259.183 280.938 257.027 283.927 252.219Z" fill="#9FCEE5" fill-opacity="0.0117647"/>
<path d="M321.956 191.784C322.233 192.107 322.087 191.88 322.208 192.552C319.373 197.802 316.691 203.133 314.164 208.538C312.131 212.878 310.302 218.77 307.325 222.224C307.088 222.081 307.24 222.202 307.087 221.692C312.283 212.382 315.805 200.663 321.956 191.784Z" fill="#BDE1EF" fill-opacity="0.0745098"/>
<path d="M291.022 237.363C290.048 238.847 290.101 239.673 288.771 241.253L288.398 241.106C288.659 239.362 299.449 217.35 300.545 216.579C300.641 217.402 297.778 223.295 297.225 224.693C295.139 228.77 293.396 233.378 291.022 237.363Z" fill="#9FCEE5" fill-opacity="0.0392157"/>
<path d="M313.228 188.853C313.345 188.977 313.482 189.348 313.563 189.528C310.371 195.737 307.949 201.803 304.951 208.084C303.859 210.373 303.099 212.664 301.736 214.786L301.283 214.402C301.219 213.255 311.691 191.046 313.228 188.853Z" fill="#BDE1EF" fill-opacity="0.0862745"/>
<path d="M296.945 230.546L297.424 230.893C296.398 233.712 285.85 250.724 284.268 252.278L283.927 252.219C285.25 247.454 291.613 241.183 291.813 239.083C293.554 236.315 295.235 233.362 296.945 230.546Z" fill="#9FCEE5" fill-opacity="0.164706"/>
<path d="M274.018 496.885L277.135 496.563C279.184 497.124 280.188 496.48 282.168 497.305L282.43 497.862C280.916 499.39 275.328 500.193 273.411 499.136C273.07 498.094 273.255 497.801 274.018 496.885Z" fill="#9FCEE5"/>
<path d="M389.485 49.719C391.138 50.8355 396.515 64.5445 396.945 66.8706C394.481 63.8247 389.173 53.505 389.485 49.719Z" fill="#92C8DD" fill-opacity="0.0313725"/>
<path d="M297.225 224.693C297.803 227.292 294.881 228.711 296.945 230.546C295.235 233.362 293.554 236.315 291.813 239.083L291.162 238.619L291.022 237.363C293.396 233.378 295.139 228.77 297.225 224.693Z" fill="#93C7DB"/>
<path d="M431.499 145.371C432.573 146.328 441.003 164.265 441.517 166.237C439.086 165.027 432.703 148.866 431.499 145.371Z" fill="#9FCEE5" fill-opacity="0.109804"/>
<path d="M400.878 506.53C402.358 505.542 416.957 505.64 419.787 506.067C410.311 507.052 407.134 507.319 397.267 506.809L400.878 506.53Z" fill="#9FCEE5"/>
<path d="M290.947 248.801L291.953 249.145C291.578 250.36 284.673 263.8 283.912 265.062L283.467 264.935C283.719 263.46 289.942 250.289 290.947 248.801Z" fill="#9FCEE5" fill-opacity="0.0509804"/>
<path d="M306.016 223.229C306.036 225.357 297.845 240.907 296.386 243.672C295.947 241.836 304.558 224.779 306.016 223.229Z" fill="#BDE1EF" fill-opacity="0.0862745"/>
<path d="M88.37 319.11C89.7272 324.257 94.1718 333.584 94.4362 337.029C92.3703 333.825 87.459 322.695 88.37 319.11Z" fill="#9FCEE5" fill-opacity="0.0313725"/>
<path d="M70.6928 187.939C72.588 189.09 83.4765 196.864 83.8919 198.177C82.496 198.071 72.8619 190.22 70.0227 188.348L70.6928 187.939Z" fill="#9FCEE5" fill-opacity="0.235294"/>
<path d="M674.364 311.306C674.581 314.006 670.703 324.872 669.187 326.91C668.752 324.781 673.246 314.12 674.364 311.306Z" fill="#9FCEE5" fill-opacity="0.0509804"/>
<path d="M480.018 246.364C481.892 247.49 486.379 256.597 486.205 258.778L485.608 258.359C484.089 254.682 480.876 250.115 480.018 246.364Z" fill="#9FCEE5" fill-opacity="0.0196078"/>
<path d="M654.486 378.38C653.097 376.201 655.731 372.893 657.413 371.699C658.596 373.66 656.501 375.741 655.778 377.576L655.568 378.13L654.486 378.38Z" fill="#9FCEE5"/>
<path d="M445.28 505.651C448.518 505.452 460.14 505.343 463.15 505.926C460.578 506.248 453.417 505.731 452.317 506.614L451.362 506.643C449.188 506.234 447.368 506.668 445.106 506.118L445.28 505.651Z" fill="#9FCEE5" fill-opacity="0.0196078"/>
<path d="M143.471 533.457C143.757 533.414 144.413 533.428 144.729 533.428L145.238 533.96L145.019 534.413C143.166 535.498 139.708 536.559 137.575 537.293L136.871 537.529L136.348 537.261C136.9 536.526 142.078 534.188 143.471 533.457Z" fill="#9FCEE5" fill-opacity="0.0156863"/>
<path d="M702.383 221.74C702.991 224.197 700.914 230.854 699.453 232.83C698.772 230.733 701.45 223.92 702.383 221.74Z" fill="#93C7DB" fill-opacity="0.0117647"/>
<path d="M697.886 212.27L698.382 212.583C699.091 214.457 695.784 218.069 695.096 221.769C694.536 221.363 694.72 221.547 694.369 220.937C694.619 219.506 697.09 213.664 697.886 212.27Z" fill="#9FCEE5"/>
<path d="M101.559 322.326C103.049 323.553 105.356 332.691 105.756 334.916C104.247 333.511 101.698 324.564 101.559 322.326Z" fill="#9FCEE5" fill-opacity="0.0823529"/>
<path d="M111.491 354.928C113.533 356.043 114.209 363.356 115.33 366.711L114.602 366.462C113.131 362.101 112.415 359.351 111.491 354.928Z" fill="#9FCEE5" fill-opacity="0.0627451"/>
<path d="M120.88 217.105C117.528 215.576 111.755 212.701 109.423 209.883L109.579 209.486C111.339 209.938 116.092 214.572 120.763 216.436L121.304 216.65L120.88 217.105Z" fill="#BDE1EF" fill-opacity="0.196078"/>
<path d="M387.035 506.071C390.143 505.98 398.49 505.307 400.878 506.53L397.267 506.809C392.415 506.632 387.56 506.567 382.708 506.61C384.17 506.556 385.993 506.751 387.035 506.071Z" fill="#BDE1EF" fill-opacity="0.615686"/>
<path d="M634.011 504.348C634.185 504.497 634.38 504.848 634.521 505.057C634.109 507.341 633.193 512.057 631.768 513.733L631.272 512.951C631.703 510.707 633.229 506.675 634.011 504.348Z" fill="#9FCEE5" fill-opacity="0.0196078"/>
<path d="M650.611 386.751L651.809 387.598C652.384 389.968 651.548 392.082 649.547 393.508L649.573 394.163C649.526 392.73 650.249 388.151 650.611 386.751Z" fill="#9FCEE5"/>
<path d="M119.792 406.363C121.684 407.499 123.841 414.159 123.692 416.337C122.158 414.553 121.226 409.566 119.642 407.405C119.692 407.058 119.742 406.71 119.792 406.363Z" fill="#9FCEE5" fill-opacity="0.0470588"/>
<path d="M318.893 176.599C319.143 177.052 319.443 177.419 319.775 177.816C319.58 179.217 317.973 181.159 317.14 182.522L316.699 182.538L316.333 181.916C316.344 180.376 318.026 177.875 318.893 176.599Z" fill="#BDE1EF"/>
<path d="M648.516 398.372C648.668 399.284 647.029 408.976 646.428 409.761C646.305 409.667 646.146 409.316 646.059 409.157C646.468 406.16 647.033 400.768 648.516 398.372Z" fill="#9FCEE5" fill-opacity="0.113725"/>
<path d="M639.775 521.879C641.229 522.419 645.307 523.559 646.19 524.091L646.125 524.941C643.505 524.058 640.94 524.666 639.532 522.947L639.775 521.879Z" fill="#9FCEE5" fill-opacity="0.01"/>
<path d="M705.408 205.045L705.835 205.498C704.533 208.448 703.993 212.046 702.369 214.337L702.072 214.017C701.935 212.508 704.616 206.603 705.408 205.045Z" fill="#9FCEE5" fill-opacity="0.0431373"/>
<path d="M305.857 191.287C306.022 191.438 306.203 191.785 306.333 191.998C305.924 194.139 304.851 196.475 304.005 198.521C303.689 198.394 303.9 198.506 303.521 197.992C303.616 195.47 304.694 193.459 305.857 191.287Z" fill="#BDE1EF" fill-opacity="0.027451"/>
<path d="M527.796 518.39C529.345 518.181 531.139 517.591 532.228 518.799L532.091 519.968C530.43 520.037 528.99 520.341 527.76 519.418L527.796 518.39Z" fill="#9FCEE5"/>
<path d="M84.4215 325.537C86.939 327.311 86.4372 332.061 86.3934 334.885C85.8141 333.71 84.9244 327.573 84.4215 325.537Z" fill="#9FCEE5" fill-opacity="0.0705882"/>
<path d="M88.9634 197.271C91.7841 197.071 96.7033 199.586 98.6224 201.634C97.5135 201.418 90.3303 197.96 88.9634 197.271Z" fill="#9FCEE5" fill-opacity="0.980392"/>
<path d="M437.657 505.666C440.218 505.597 442.661 505.749 445.28 505.651L445.107 506.118C447.368 506.668 449.188 506.234 451.362 506.643C447.893 506.976 441.004 506.74 437.657 505.666Z" fill="#BDE1EF" fill-opacity="0.713725"/>
<path d="M277.664 499.897C279.26 499.839 281.217 499.473 282.32 500.671L282.064 501.59C280.539 501.453 278.236 501.518 277.294 500.689L277.664 499.897Z" fill="#9FCEE5"/>
<path d="M292.172 524.536C292.861 524.724 292.525 524.597 293.179 524.919C292.521 525.654 288.835 526.287 287.727 526.497C286.991 526.718 287.22 526.729 286.535 526.562L286.616 526.143C288.634 525.202 290 524.992 292.172 524.536Z" fill="#9FCEE5" fill-opacity="0.960784"/>
<path d="M253.017 307.981C254.951 308.295 257.82 310.476 258.481 312.384C256.374 311.135 253.75 310.077 253.017 307.981Z" fill="#9FCEE5" fill-opacity="0.054902"/>
<path d="M100.197 376.57C101.281 378.304 100.579 381.058 99.9836 382.846C99.0845 380.548 99.2715 378.763 100.197 376.57Z" fill="#BDE1EF" fill-opacity="0.976471"/>
<path d="M360.662 517.529C361.896 517.79 361.489 517.464 362.106 518.271C361.213 519.078 360.56 519.031 359.305 519.223L358.124 519.277L357.983 518.879C358.939 517.898 359.281 517.916 360.662 517.529Z" fill="#9FCEE5"/>
<path d="M681.496 281.833C681.633 281.968 681.879 282.453 681.988 282.647C681.818 284.925 681.666 285.473 681.014 287.662L680.479 286.682C680.392 285.069 681.029 283.423 681.496 281.833Z" fill="#BDE1EF" fill-opacity="0.968627"/>
<path d="M697.792 166.105C698.103 166.432 697.976 166.341 698.114 166.892C697.419 167.995 696.062 168.506 694.843 169.146L694.449 168.46C694.981 167.453 696.706 166.706 697.792 166.105Z" fill="#9FCEE5"/>
<path d="M105.513 375.035C106.137 376.722 106.437 377.464 106.739 379.281L105.986 379.078L106.721 379.708L106.34 379.657C105.619 378.311 105.294 377.366 104.779 375.951L105.513 375.035Z" fill="#9FCEE5" fill-opacity="0.105882"/>
<path d="M88.7981 341.938L89.6882 342.249C90.7085 343.621 91.0164 344.822 91.0012 346.501C89.7508 345.644 89.0282 343.387 88.7981 341.938Z" fill="#9FCEE5" fill-opacity="0.054902"/>
<path d="M384.285 517.37C385.978 517.276 388.851 516.994 390.407 517.316L390.483 517.775C388.233 517.989 386.973 518.05 384.719 518.003L384.285 517.37Z" fill="#9FCEE5" fill-opacity="0.913725"/>
<path d="M650.684 367.967L651.136 368.492C651.508 370.063 651.205 371.083 650.94 372.683L650.195 371.988C649.935 370.566 650.351 369.404 650.684 367.967Z" fill="#9FCEE5" fill-opacity="0.027451"/>
<path d="M382.708 506.61L381.17 506.777L381.032 506.516C383.283 505.875 384.705 505.901 387.035 506.071C385.993 506.751 384.169 506.556 382.708 506.61Z" fill="#9FCEE5" fill-opacity="0.827451"/>
<path d="M537.587 518.423C539.219 518.289 540.691 518.011 542.218 518.495L542.323 519.198C541.404 519.071 539.255 519.147 538.086 519.085L537.587 518.423Z" fill="#BDE1EF" fill-opacity="0.956863"/>
<path d="M400.39 569.004L399.898 568.936C394.622 568.223 387.256 568.766 381.868 569.022C373.253 569.446 364.642 569.913 356.032 570.423C337.995 571.393 319.901 573.116 301.955 573.948C263.906 575.711 226.96 580.34 189.829 588.87C187.279 589.456 171.931 592.247 170.992 593.282C171.612 593.955 172.003 594.295 172.683 594.878L172.598 595.565C170.16 597.429 159.918 599.492 157.479 596.325C156.322 594.552 157.689 592.815 159.191 591.885C163.607 589.145 168.578 587.411 172.903 584.505C175.753 582.591 178.43 582.012 181.759 581.451C193.456 579.478 205.028 576.796 216.699 574.679C220.426 573.999 224.204 573.641 227.938 573.007C310.124 558.4 393.696 553.12 477.066 557.275C522.289 559.211 568.627 562.059 612.36 575.399C614.393 576.022 617.65 579.598 619.538 580.662C623.312 582.851 629.684 584.306 631.912 588.769C632.068 593.184 623.301 592.804 620.229 593.09C606.683 594.353 594.935 591.233 581.793 588.848C549.693 583.025 516.985 580.535 484.472 578.197C478.886 577.803 473.249 578.49 467.521 577.477L461.171 577.133C429.642 576.536 397.166 577.676 365.615 578.99C361.9 579.142 357.66 579.174 354.028 579.446C322.658 582.023 291.387 585.692 260.273 590.448L219.239 596.97C214.472 597.741 205.872 599.858 201.334 599.879C195.642 599.901 182.079 602.543 177.724 599.843L177.366 599.217C180.995 592.124 247.56 584.502 257.965 582.587C293.539 576.033 329.626 573.239 365.677 570.933C377.089 570.206 388.978 570.803 400.39 569.004ZM580.676 579.547C585.035 580.64 609.111 585.975 612.146 585.294L612.114 584.791C606.817 580.89 586.834 577.376 579.264 575.323C578.942 576.062 579.065 575.693 579.246 576.681C578.201 577.09 561.416 575.599 559.071 575.356C531.816 572.28 504.466 570.09 477.066 568.794C470.839 568.48 465.035 568.078 458.765 568.107C453.193 568.129 447.69 567.473 442.035 567.651C435.851 567.868 404.373 567.636 400.788 568.729C405.43 570.904 443.384 568.617 451.88 568.997C486.071 570.532 520.154 573.242 554.209 576.554C562.936 577.401 572.082 578.859 580.676 579.547ZM348.701 566.428C372.345 565.526 395.274 563.438 418.98 564.361C422.609 564.502 450.57 564.524 451.912 564.017C446.666 562.421 425.767 562.884 419.164 562.696C414.822 562.573 401.229 562.182 397.144 562.562C394.904 562.805 391.239 563.156 389.195 563.051C379.527 562.551 299.225 567.875 297.674 569.79C303.315 570.029 308.299 568.885 313.519 568.791C325.606 568.574 336.693 567.644 348.701 566.428ZM413.958 557.894C415.832 558.845 418.245 558.711 420.163 557.923C417.858 557.676 416.291 557.517 413.958 557.894ZM486.057 563.623C487.967 564.307 491.354 565.269 493.308 564.596C491.632 563.717 487.888 563.366 486.057 563.623ZM524.894 568.042C532.576 568.534 541.397 569.851 549.046 570.752C552.729 571.183 560.971 573.029 564.133 572.975L564.303 572.493C563.341 571.896 561.322 572.012 560.016 571.661C551.028 569.254 539.07 567.369 529.71 567.441C526.088 567.017 521.2 567.213 517.249 566.978C511.348 566.627 503.24 564.086 497.827 564.708L497.932 565.023C502.237 566.323 520.122 568.002 524.894 568.042ZM402.832 557.951L402.835 557.539C400.831 557.141 396.312 557.315 394.217 557.524L394.629 558.237C396.565 558.371 400.802 558.151 402.832 557.951ZM463.747 562.537L464.116 563.261C465.987 563.594 471.921 563.623 474.15 563.688V563.246C472.456 562.859 465.64 562.515 463.747 562.537ZM546.911 582.099L546.867 581.129C545.333 579.808 539.57 579.026 537.67 579.116L537.323 580.068C538.419 580.825 545.069 581.795 546.911 582.099Z" fill="#92C8DD"/>
<path d="M461.171 577.133C459.735 576.728 454.582 575.696 453.917 575.124L454.043 574.549C456.193 573.814 466.642 574.777 468.404 575.982L468.585 576.634C468.057 577.394 468.393 577.115 467.521 577.477L461.171 577.133Z" fill="#9FCEE5"/>
<path d="M442.035 567.651C447.69 567.474 453.193 568.129 458.765 568.107C465.035 568.078 470.839 568.48 477.066 568.795C504.466 570.09 531.816 572.28 559.071 575.356C561.416 575.599 578.201 577.09 579.246 576.681C579.065 575.693 578.942 576.062 579.264 575.323C586.834 577.376 606.817 580.89 612.114 584.791L612.146 585.294C609.111 585.975 585.035 580.64 580.675 579.547C572.082 578.859 562.936 577.401 554.209 576.554C520.154 573.242 486.071 570.532 451.88 568.997C443.384 568.617 405.43 570.904 400.788 568.729C404.373 567.636 435.851 567.868 442.035 567.651Z" fill="#9FCEE5" fill-opacity="0.01"/>
<path d="M397.144 562.562C401.229 562.182 414.823 562.573 419.164 562.696C425.767 562.884 446.666 562.421 451.912 564.017C450.57 564.524 422.609 564.502 418.98 564.361C395.274 563.438 372.345 565.526 348.701 566.428C336.693 567.644 325.606 568.574 313.519 568.791C308.299 568.885 303.315 570.029 297.674 569.79C299.225 567.875 379.527 562.551 389.195 563.051C391.239 563.156 394.905 562.805 397.144 562.562Z" fill="#9FCEE5" fill-opacity="0.01"/>
<path d="M529.71 567.441C539.07 567.369 551.028 569.254 560.016 571.661C561.322 572.012 563.341 571.896 564.303 572.493L564.133 572.975C560.971 573.029 552.729 571.183 549.046 570.753C541.397 569.851 532.576 568.534 524.894 568.042C524.753 567.919 524.84 568.013 524.76 567.68C526.41 567.636 528.06 567.557 529.71 567.441Z" fill="#92C8DD" fill-opacity="0.0156863"/>
<path d="M524.894 568.042C520.122 568.002 502.237 566.322 497.932 565.023L497.827 564.708C503.24 564.086 511.348 566.627 517.249 566.978C521.2 567.213 526.088 567.017 529.71 567.441C528.06 567.557 526.41 567.636 524.76 567.68C524.84 568.013 524.753 567.919 524.894 568.042Z" fill="#9FCEE5" fill-opacity="0.0941176"/>
<path d="M357.101 575.953L358.332 575.725L358.258 576.261L358.68 575.982L358.614 576.38C357.166 577.488 356.145 577.549 354.386 577.889C353.208 577.734 353.66 577.987 352.888 577.321L353.086 576.945C354.605 576.065 355.391 576.101 357.101 575.953Z" fill="#9FCEE5"/>
<path d="M463.747 562.537C465.64 562.515 472.456 562.859 474.15 563.246V563.688C471.921 563.623 465.987 563.594 464.116 563.261L463.747 562.537Z" fill="#9FCEE5" fill-opacity="0.105882"/>
<path d="M394.217 557.524C396.312 557.314 400.831 557.141 402.835 557.539L402.832 557.951C400.802 558.15 396.565 558.371 394.629 558.237L394.217 557.524Z" fill="#9FCEE5" fill-opacity="0.133333"/>
<path d="M272.394 572.023C274.066 571.694 277.957 571.158 279.128 572.403C277.687 572.598 273.54 572.834 272.394 572.023Z" fill="#9FCEE5"/>
<path d="M486.057 563.623C487.888 563.366 491.632 563.717 493.308 564.596C491.354 565.269 487.967 564.307 486.057 563.623Z" fill="#9FCEE5" fill-opacity="0.0941176"/>
<path d="M367.551 576.362C369.111 576.163 371.665 575.899 373.145 576.311L373.174 576.793C371.444 576.995 369.143 577.187 367.472 576.746L367.551 576.362Z" fill="#9FCEE5"/>
<path d="M413.958 557.894C416.291 557.517 417.858 557.676 420.163 557.922C418.245 558.711 415.832 558.845 413.958 557.894Z" fill="#BDE1EF" fill-opacity="0.431373"/>
<path d="M211.754 530.497C215.059 529.61 218.633 529.154 221.998 528.47C231.054 526.631 240.001 524.985 249.138 523.627C258.331 522.259 267.505 520.674 276.733 519.541C291.516 517.724 306.4 516.584 321.222 515.242C362.185 511.536 403.338 507.812 444.524 509.194C442.433 509.791 436.908 509.654 436.079 510.139C418.459 511.438 403.205 510.743 386.239 511.681C349.086 513.66 312.019 517.059 275.124 521.868C258.542 523.92 243 526.472 226.587 529.418C221.647 530.305 202.03 534.528 198.696 534.127C198.712 534.014 198.705 533.895 198.745 533.786C199.076 532.918 209.989 531.032 211.754 530.497Z" fill="#92C8DD" fill-opacity="0.01"/>
<path d="M177.581 535.183C181.224 534.499 207.418 529.089 209.568 529.646C203.419 530.692 195.184 533.851 189.603 534.318C186.731 535.212 184.294 535.983 181.338 536.631C180.287 536.511 179.882 536.501 178.861 536.135L179.259 535.429L177.581 535.183Z" fill="#9FCEE5" fill-opacity="0.01"/>
<path d="M209.568 529.646L210.401 529.302C211.254 529.755 211.208 529.704 211.754 530.497C209.989 531.032 199.076 532.918 198.745 533.786C198.705 533.895 198.712 534.014 198.696 534.127L198.517 534.166C197.024 533.783 193.106 534.492 191.855 535.281C190.983 534.376 191.089 534.644 189.603 534.318C195.184 533.852 203.419 530.692 209.568 529.646Z" fill="#93C7DB" fill-opacity="0.984314"/>
<path d="M444.524 509.194C445.703 509.125 448.869 508.941 449.774 509.523C447.382 510.193 438.789 510.298 436.079 510.139C436.908 509.654 442.433 509.791 444.524 509.194Z" fill="#9FCEE5" fill-opacity="0.129412"/>
<path d="M191.855 535.281C193.106 534.492 197.024 533.783 198.517 534.166C197.275 535.212 194.242 535.857 192.662 535.965C192.04 535.621 192.182 535.82 191.855 535.281Z" fill="#93C7DB" fill-opacity="0.0235294"/>
</svg>
