<svg width="741" height="612" viewBox="0 0 741 612" fill="none" xmlns="http://www.w3.org/2000/svg">
<path d="M252.905 270.01C254.845 265.135 256.437 259.916 258.279 254.951C267.954 228.876 279.377 203.922 290.81 178.594L313.442 128.052C322.913 107.349 332.229 86.5974 342.024 66.0427C343.787 62.344 345.35 58.5482 347.175 54.8798C349.528 50.1514 363.962 22.7339 366.933 21.6301C368.007 21.2306 369.422 21.7239 370.319 22.3231C371.274 22.9616 371.745 23.9969 371.864 25.1129C372.248 28.7051 369.784 32.0153 370.019 35.4488L370.424 35.6642C374.252 33.7184 376.998 17.9471 383.42 18.8297C387.773 21.8487 384.347 32.5988 385.722 35.4967C386.984 35.0447 387.053 34.8339 387.864 34.3495C388.819 34.1092 391.011 34.6179 391.706 34.0079C394.221 31.7919 395.386 25.885 399.843 27.7053C402.647 28.7782 403.935 31.889 404.934 34.5334C409.88 47.6154 414.891 60.7323 420.101 73.7175C421.939 78.3066 425.21 83.3525 427.573 87.8055L444.947 120.201C461.186 150.447 477.551 180.126 492.258 211.185C501.467 230.635 511.655 248.805 519.59 268.95C521.83 267.603 529.746 260.382 532.71 258.03L572.697 226.424C589.03 213.704 606.321 202.183 623.142 190.121C627.458 187.025 631.587 183.688 635.874 180.556C639.829 177.666 643.939 175.02 647.861 172.076C654.255 167.278 660.608 162.201 667.204 157.706C674.73 152.575 706.638 131.337 715.098 133.611C715.825 133.807 716.017 133.992 716.498 134.53C717.156 138.063 712.149 141.806 709.678 144.013C709.229 145.415 708.802 146.367 708.871 147.832C710.962 147.758 727.786 135.387 732.91 138.265C734.672 141.289 731.26 144.474 729.154 146.57C726.962 148.171 724.639 150.133 722.504 151.848C722.526 152.783 723.369 155.888 723.181 156.244C720.604 161.038 719.244 164.392 717.912 169.673C722.424 164.025 724.429 149.855 730.478 147.882C732.53 150.181 732.921 152.238 732.371 155.203C730.858 163.335 728.08 171.838 725.8 179.768L715.26 217.441C711.975 229.295 709.366 241.623 706.193 253.276C696.895 286.658 687.802 320.097 678.923 353.593L666.451 403.971C665.431 408.165 663.933 412.559 663 416.685C662.019 421.02 661.411 425.841 660.489 430.271L649.826 479.861C647.34 491.145 645.687 506.125 642.872 516.885C648.476 519.002 659.508 522.82 662.37 528.358C662.356 528.879 662.489 529.251 662.095 529.65C660.272 531.481 644.815 530.496 641.5 530.536C644.746 532.136 649.243 533.971 650.702 537.416C650.285 540.898 642.007 539.186 639.442 538.723C639 542.331 638.183 551.585 633.895 552.284C629.897 550.757 630.259 540.739 630.346 537.199C629.018 536.826 626.851 535.99 625.736 536.439C627.104 539.418 629.687 541.003 625.016 543.301C622.653 544.463 619.509 544.242 616.959 543.887C606.737 542.461 596.715 539.772 586.551 537.948C553.228 531.969 519.724 528.169 486.057 524.847C481.983 524.547 477.533 523.356 473.491 523.226C466.848 523.012 460.285 522.82 453.627 522.625C433.253 522.035 412.71 521.687 392.346 522.704C387.798 522.929 383.214 523.551 378.673 523.888L324.909 528.282C304.255 529.903 283.288 530.482 262.678 533.229C240.604 536.168 218.412 540.142 196.673 544.991C184.567 547.691 172.521 548.788 160.615 552.743C158.875 553.275 152.547 553.449 150.393 553.703C146.899 554.111 137.734 557.061 135.796 553.42C136.501 547.93 147.197 547.93 149.593 544.314L149.73 542.823C146.934 539.848 122.561 548.853 118.69 544.959C117.516 540.286 128.546 533.547 132.03 531.684L132.538 530.985C132.656 529.581 130.077 526.591 129.259 525.039C116.651 501.116 109.39 474.009 101.318 448.385L74.1004 360.275C61.0518 317.518 47.5637 273.999 32.9654 231.739C31.5708 228.427 29.6428 225.332 29.8785 221.715C30.4619 212.762 11.7252 166.538 17.7947 161.42C23.8538 159.751 28.8379 173.479 30.1172 177.51C32.3813 182.125 33.5132 184.537 34.8565 189.6C35.6411 191.278 39.0179 199.508 39.6884 200.14C39.6898 200.153 36.7971 189.72 36.736 189.575C36.1795 186.408 34.0117 180.408 33.0165 176.889C31.9643 173.493 32.1178 172.482 32.4818 168.966C29.6239 166.614 27.7324 165.652 24.9724 162.68C22.2054 159.7 13.3868 147.407 13.4999 144.091C15.0174 143.252 15.9008 142.881 17.6182 143.446C22.5843 145.078 26.9637 146.011 31.79 148.108C33.5547 146.134 36.3068 143.062 39.0378 143.365C50.9336 144.683 65.2807 155.785 75.1645 161.561L123.155 189.446C162.15 212.552 201.311 234.995 239.302 259.775C244.092 262.899 248.259 266.844 252.905 270.01ZM259.989 329.785C258.791 329.793 256.163 329.919 255.161 329.406C250.61 327.074 254.039 320.105 256.264 317.194C242.886 313.442 231.25 305.866 219.187 299.245C211.828 295.206 204.826 290.643 197.684 286.248C165.615 266.869 134.322 246.234 103.878 224.39C94.5557 217.803 85.3956 210.79 76.3827 203.794C74.7252 202.508 73.1043 201.343 71.2746 200.303L71.5174 200.725C73.9242 204.992 76.2593 212.609 77.9769 217.507C84.6596 236.566 90.2938 256.085 95.9798 275.465C96.7407 278.059 97.0797 280.892 97.96 283.471C99.1833 287.035 100.669 290.432 101.866 294.011L125.518 364.391C129.862 377.109 134.158 389.845 138.669 402.505C140.275 407.014 141.123 412.154 142.722 416.62C147.588 430.206 151.015 444.038 154.784 457.932C158.784 471.736 163.817 485.456 165.29 499.831C165.387 500.624 165.721 508.043 167.037 507.812C182.812 504.996 198.491 497.247 214.142 493.986C234.829 489.676 255.97 486.212 276.813 482.651C286.319 481.03 296.505 480.805 306.041 479.34C320.828 477.099 335.424 475.724 350.357 474.855C357.995 474.407 365.619 473.415 373.304 473.122C378.945 472.981 385.023 472.358 390.548 472.434C406.219 472.641 421.965 472.304 437.617 472.47C453.624 472.641 469.41 472 485.304 474.052C488.601 474.479 492.523 474.063 495.866 474.421C509.926 475.565 524.569 476.879 538.499 479.141C549.498 480.928 561.264 483.715 572.18 486.151C579.424 487.769 586.732 489.14 593.958 490.812C597.272 491.58 601.02 493.389 604.277 494.432C604.649 492.133 605.312 489.394 605.496 487.135C609.179 442.301 623.348 397.757 635.585 354.705L662.855 257.424C664.508 251.623 681.713 200.105 681.517 198.735C680.287 198.778 674.639 203.853 672.877 205.073C659.544 214.286 647.112 224.699 634.488 234.83C629.582 238.769 623.717 242.536 618.576 246.361L566.159 285.214C559.9 289.843 553.065 294.489 546.752 299.161C542.602 302.231 537.713 305.039 533.969 308.599C534.569 311.382 537.431 320.645 533.723 321.697C530.625 320.907 527.854 315.397 526.609 312.641C523.888 314.689 513.269 318.99 510.769 315.654C510.509 313.304 513.515 310.495 514.767 307.748C511.887 308.924 509.419 309.885 506.463 310.901C505.91 312.791 506.098 313.85 505.034 315.376C501.948 317.037 498.228 311.719 496.615 309.552C497.816 317.347 497.194 322.689 489.103 314.754C482.508 308.287 479.439 298.778 475.278 290.742C471.118 282.205 467.351 273.419 463.223 264.845C453.327 244.301 442.842 223.675 433.21 203.038C422.254 179.522 411.932 155.716 402.257 131.645C398.244 121.875 394.687 111.776 390.534 102.081C389.477 99.6195 384.35 84.9453 383.757 84.5182C383.055 88.6064 378.59 98.6108 376.788 102.873L369.245 121.167C365.333 130.541 361.457 140.454 357.537 149.736C342.489 184.838 326.204 219.396 308.714 253.347C306.112 258.343 304.163 263.066 301.308 268.084C291.123 285.985 281.174 304.292 269.051 320.975C267.263 323.435 264.708 326.603 262.212 328.362C261.488 328.863 260.746 329.337 259.989 329.785ZM488.358 228.243C488.633 232.55 506.728 272.103 509.582 273.701C509.115 270.51 490.294 229.559 488.358 228.243ZM460.621 487.414C464.196 487.707 474.081 487.215 478.072 487.132C475.988 486.162 460.777 486.082 458.074 486.089C453.07 485.145 420.858 484.685 415.528 485.698C416.121 485.85 429.252 487.36 429.744 487.349C438.995 487.164 451.735 488.778 460.621 487.414ZM647.116 446.507C644.254 454.404 633.848 487.906 634.847 494.837C636.677 490.758 638.979 477.932 640.571 473.078C641.826 469.264 647.572 449.706 647.116 446.507ZM285.274 224.491C287.726 220.656 288.841 216.6 290.88 212.655C298.466 197.979 304.029 182.319 311.7 167.717C316.483 159.588 319.862 150.661 323.939 142.243C331.459 126.721 337.685 111.757 342.944 95.3098C339.228 101.044 334.173 114.646 331.129 121.391C324.199 136.743 317.702 152.376 309.974 167.361C306.848 174.104 304.38 180.738 301.484 187.522C298.002 195.675 286.572 216.379 285.274 224.491ZM564.531 509.708C561.955 509.798 554.856 508.619 553.908 508.814C556.615 509.842 559.274 510.729 562.161 511.036C572.444 512.734 582.079 515.397 592.634 516.237C596.809 516.57 599.555 517.428 604.056 517.135C593.961 513.599 585.148 513.056 574.608 511.481C571.529 511.022 567.462 509.679 564.531 509.708ZM625.15 512.647L626.576 512.459C629.155 508.325 629.322 499.792 629.445 494.931L628.967 494.265C627.126 497.352 623.674 507.728 624.057 511.293C624.52 512.035 624.506 512.071 625.15 512.647ZM263.703 299.987C264.61 297.145 269.72 288.595 269.002 287.023L268.059 286.8C265.364 289.532 263.34 291.981 261.479 295.381C262.2 296.774 263.196 298.542 263.703 299.987ZM485.789 263.719C488.213 269.396 491.253 275.177 493.832 280.836C495.044 283.486 496.09 286.359 497.244 288.813L498.011 289.063C498.456 288.775 498.894 288.525 499.292 288.178C500.161 286.866 500.298 287.147 500.121 285.99C499.039 284.695 496.083 281.323 495.359 279.983C493.677 276.859 488.014 265.617 485.789 263.719ZM254.616 292.232C255.356 289.672 256.18 287.694 257.179 285.244C254.975 284.974 253.05 284.978 250.835 284.946C250.782 284.862 250.731 284.777 250.677 284.694C250.587 284.556 250.492 284.421 250.402 284.283C247.094 279.198 225.651 267.618 219.465 263.665C214.941 260.774 210.852 257.319 206.175 254.642C204.968 253.791 203.641 252.648 202.256 252.398C202.538 253.293 204.622 254.651 205.445 255.125C208.598 256.72 213.107 260.083 216.17 262.19C221.408 266.134 227.398 269.588 232.504 273.669C238.64 278.574 244.793 283.598 251.109 288.314C252.092 289.049 253.789 291.234 254.616 292.232ZM682.552 166.407C687.241 163.869 692.354 159.624 696.869 156.525C697.499 156.091 698.118 154.723 698.418 153.997L698.36 153.516L697.958 153.397C694.716 155.64 691.268 158.165 688.236 160.683C686.094 162.46 684.358 164.55 682.114 166.231L682.552 166.407ZM639.854 378.825C638.689 382.607 637.875 386.581 636.873 390.435L629.973 417.966C628.269 425.041 625.465 434.596 624.361 441.592L624.705 441.769C627.672 435.613 640.813 384.402 639.854 378.825ZM144.161 519.027C146.131 518.123 146.909 517.833 148.996 517.25C151.206 514.116 148.972 511.369 147.659 507.902C145.43 502.014 143.601 496.161 141.716 490.168C141.335 489.035 140.421 487.602 139.322 487.045C140.473 492.434 142.316 498.145 143.284 503.523C144.061 507.837 144.17 514.507 144.161 519.027ZM269.515 285.199C271.129 283.945 272.609 281.629 270.673 279.942C269.905 281.333 269.07 282.545 268.863 284.091C269.162 284.738 269.068 284.672 269.515 285.199ZM710.51 166.789C709.2 168.093 707.868 169.258 706.917 170.826L707.17 171.474C708.646 171.256 709.16 171.416 710.184 170.2C710.911 169.34 711.298 167.667 710.51 166.789ZM59.9762 222.287C57.9203 215.586 55.9499 208.859 54.0652 202.108C51.078 191.604 50.0161 182.361 40.171 176.102C44.8146 186.059 47.7283 191.503 51.5429 202.483C53.5293 208.2 56.2172 218.45 58.1913 223.172C59.2185 225.515 59.6339 227.326 60.8271 229.838L61.0782 229.857C60.6209 227.222 60.2736 224.943 59.9762 222.287ZM502.053 299.436C503.037 298.517 505.204 296.864 505.28 295.882L504.463 295.646C503.131 296.199 501.76 296.582 500.881 297.651C500.982 298.589 501.134 298.873 502.053 299.436ZM28.5687 156.649C30.8433 159.065 40.5122 166.432 43.3963 167.592C41.7996 165.605 30.9957 157.483 28.5687 156.649ZM200.063 519.458C202.229 519.234 204.359 519.067 206.482 518.582C213.091 517.913 219.395 516.592 225.958 515.694C229.121 515.26 232.266 515.575 235.426 515.271C247.249 513.403 259.063 511.463 270.892 509.592C272.572 509.324 277.901 509.371 278.649 508.648C277.088 507.938 275.194 508.221 273.39 508.271C265.568 510.016 257.312 509.14 249.679 509.972C232.988 511.789 215.907 513.881 200.063 519.458ZM115.969 222.58C117.595 224.538 126.608 230.206 129.171 231.932C135.647 236.296 162.161 255.58 168.699 257.079C162.942 252.744 119.293 223.239 115.969 222.58ZM361.929 93.9454C358.996 99.0118 330.771 159.442 330.832 160.366L331.113 160.634C333.153 157.566 334.481 154.855 336.09 151.614C344.389 134.891 353.107 118.7 359.682 101.136C360.483 98.997 361.382 96.8157 362.406 94.7662C362.196 94.1701 362.348 94.3218 361.929 93.9454Z" fill="#94C9DF"/>
<path d="M273.389 508.271C275.194 508.221 277.088 507.938 278.649 508.648C277.901 509.372 272.571 509.324 270.892 509.592C259.063 511.463 247.249 513.403 235.425 515.271C232.265 515.575 229.121 515.26 225.958 515.694C219.395 516.592 213.091 517.913 206.482 518.582C204.359 519.067 202.228 519.234 200.063 519.458C215.907 513.881 232.988 511.789 249.679 509.972C257.312 509.14 265.568 510.016 273.389 508.271Z" fill="#ABD2E6" fill-opacity="0.01"/>
<path d="M206.175 254.642C210.852 257.319 214.941 260.774 219.465 263.665C225.651 267.618 247.094 279.198 250.402 284.283C250.492 284.422 250.587 284.556 250.677 284.694C250.731 284.777 250.782 284.862 250.835 284.946C253.05 284.978 254.975 284.974 257.179 285.244C256.18 287.694 255.356 289.672 254.616 292.232C253.789 291.234 252.092 289.049 251.109 288.314C244.793 283.598 238.64 278.574 232.504 273.669C227.398 269.588 221.408 266.134 216.171 262.19C213.107 260.083 208.598 256.72 205.445 255.125L206.175 254.642Z" fill="#6D8C9D" fill-opacity="0.0313725"/>
<path d="M361.929 93.9456C362.348 94.3219 362.196 94.1703 362.406 94.7664C361.382 96.8159 360.483 98.9972 359.682 101.136C353.107 118.7 344.389 134.891 336.09 151.614C334.481 154.855 333.153 157.566 331.113 160.634L330.832 160.366C330.771 159.442 358.996 99.012 361.929 93.9456Z" fill="#94C9DF" fill-opacity="0.01"/>
<path d="M639.854 378.825C640.813 384.402 627.672 435.613 624.705 441.769L624.361 441.592C625.465 434.596 628.269 425.041 629.973 417.966L636.873 390.435C637.875 386.581 638.689 382.607 639.854 378.825Z" fill="#94C9DF" fill-opacity="0.01"/>
<path d="M115.969 222.58C119.293 223.239 162.942 252.744 168.699 257.079C162.162 255.58 135.647 236.296 129.171 231.932C126.608 230.206 117.595 224.538 115.969 222.58Z" fill="#94C9DF" fill-opacity="0.027451"/>
<path d="M488.358 228.243C490.294 229.559 509.116 270.51 509.582 273.701C506.728 272.103 488.633 232.55 488.358 228.243Z" fill="#94C9DF" fill-opacity="0.0117647"/>
<path d="M309.973 167.361L311.7 167.717C304.029 182.319 298.466 197.979 290.88 212.655C288.841 216.6 287.726 220.656 285.274 224.491C286.572 216.379 298.002 195.675 301.483 187.522C304.38 180.738 306.848 174.104 309.973 167.361Z" fill="#94C9DF" fill-opacity="0.027451"/>
<path d="M647.116 446.507C647.572 449.706 641.826 469.264 640.571 473.078C638.979 477.932 636.677 490.758 634.847 494.837C633.848 487.906 644.254 454.404 647.116 446.507Z" fill="#94C9DF" fill-opacity="0.01"/>
<path d="M485.789 263.719C488.014 265.617 493.677 276.859 495.359 279.983C496.083 281.324 499.039 284.696 500.121 285.99C500.298 287.147 500.16 286.866 499.292 288.179C498.894 288.525 498.456 288.775 498.011 289.063L497.244 288.813C496.09 286.359 495.044 283.486 493.832 280.836C491.252 275.177 488.213 269.396 485.789 263.719Z" fill="#94C9DF" fill-opacity="0.0313725"/>
<path d="M693.099 266.626C693.7 269.585 683.58 300.468 683.175 306.025C683.128 306.706 682.147 308.597 681.709 309.229C681.604 308.872 681.315 307.997 681.438 307.634C685.751 294.906 687.686 278.809 693.099 266.626Z" fill="#ABD2E6"/>
<path d="M697.958 153.397L698.36 153.516L698.418 153.997C698.117 154.723 697.499 156.091 696.869 156.525C692.354 159.624 687.241 163.869 682.552 166.407L682.114 166.231C684.358 164.55 686.094 162.46 688.236 160.683C691.268 158.165 694.716 155.64 697.958 153.397Z" fill="#ABD2E6" fill-opacity="0.01"/>
<path d="M458.074 486.09C460.777 486.082 475.988 486.162 478.072 487.132C474.081 487.215 464.196 487.707 460.621 487.414C458.78 487.02 456.533 487.045 454.626 486.983C455.071 486.404 457.224 486.223 458.074 486.09Z" fill="#94C9DF" fill-opacity="0.0235294"/>
<path d="M430.373 157.192L431.227 157.418C432.363 158.599 437.382 169.47 438.442 171.639L437.686 171.398C435.171 168.719 432.081 160.926 430.373 157.192Z" fill="#ABD2E6"/>
<path d="M439.155 176.786C439.451 176.824 440.276 176.945 440.385 177.149C441.803 179.755 445.646 188.641 446.308 190.914C444.43 190.152 440.276 179.329 439.155 176.786Z" fill="#ABD2E6"/>
<path d="M371.538 56.9792C372.389 57.5312 372.074 57.1725 372.505 58.0961C372.443 60.2394 367.761 66.8154 366.354 69.841L366.111 70.3691L365.804 70.4317C365.818 70.1168 370.905 58.508 371.538 56.9792Z" fill="#ABD2E6"/>
<path d="M28.5686 156.649C30.9956 157.483 41.7995 165.606 43.3962 167.592C40.5121 166.432 30.8432 159.065 28.5686 156.649Z" fill="#ABD2E6" fill-opacity="0.113725"/>
<path d="M367.833 81.9038C367.899 83.9475 363.857 92.8608 362.178 94.0682C361.755 91.6108 366.364 84.2349 367.833 81.9038Z" fill="#ABD2E6"/>
<path d="M562.161 511.036C559.274 510.729 556.615 509.842 553.908 508.814C554.856 508.619 561.955 509.799 564.531 509.708C563.677 510.146 562.932 510.468 562.161 511.036Z" fill="#94C9DF" fill-opacity="0.0392157"/>
<path d="M59.9763 222.287C60.2737 224.943 60.621 227.222 61.0783 229.857L60.8272 229.838C59.634 227.326 59.2186 225.515 58.1914 223.172L59.423 223.172L59.9763 222.287Z" fill="#ABD2E6" fill-opacity="0.0156863"/>
<path d="M159.03 225.767C161.209 226.117 164.925 228.016 165.82 230.121C164.043 229.963 160.162 227.134 159.03 225.767Z" fill="#ABD2E6"/>
<path d="M482.25 257.518C483.98 258.041 485.713 261.834 485.894 263.565L485.167 263.404C483.586 261.614 482.989 259.742 482.25 257.518Z" fill="#ABD2E6"/>
<path d="M171.448 260.071C173.421 260.325 176.781 262.389 178.228 263.864C175.399 263.779 173.239 262.074 171.448 260.071Z" fill="#ABD2E6"/>
<path d="M641.374 524.159C643.259 523.924 647.611 524.409 648.878 525.846C646.696 526.407 643.331 525.256 641.374 524.159Z" fill="#ABD2E6"/>
<path d="M680.769 311.133C681.825 312.138 680.182 316.209 679.774 317.531C678.467 315.909 679.694 312.658 680.769 311.133Z" fill="#ABD2E6"/>
<path d="M452.129 204.626C454.203 205.047 454.64 208.17 455.248 210.103L454.416 209.76C452.889 208.061 452.593 206.855 452.129 204.626Z" fill="#ABD2E6"/>
<path d="M703.885 224.245L704.417 224.937C704.294 226.73 703.512 229.253 703.024 231.06L702.604 230.648C702.246 228.573 703.197 226.219 703.885 224.245Z" fill="#ABD2E6"/>
<path d="M456.088 194.939C458.23 195.686 458.552 197.829 458.79 199.846C457.607 198.892 456.272 196.539 456.088 194.939Z" fill="#ABD2E6"/>
<path d="M470.777 233.649C472.377 234.475 472.89 237.569 473.267 239.26C471.421 237.873 471.324 235.969 470.777 233.649Z" fill="#ABD2E6"/>
<path d="M283.822 225.747L284.168 226.293C283.862 227.987 283.119 229.404 282.415 230.985L282.038 230.181C282.261 228.561 283.079 227.23 283.822 225.747Z" fill="#ABD2E6"/>
<path d="M205.445 255.125C204.622 254.651 202.537 253.293 202.256 252.398C203.641 252.648 204.968 253.791 206.175 254.642L205.445 255.125Z" fill="#ABD2E6" fill-opacity="0.654902"/>
<path d="M414.906 557.188C428.553 556.315 444.842 558.056 458.761 557.51C463.324 557.329 469.706 558.552 474.624 558.617C481.509 558.704 488.593 559.225 495.497 559.392C523.476 561.122 551.263 563.532 578.859 568.563C588.237 570.275 597.116 573.43 606.618 574.741C611.578 575.421 616.003 577.386 618.793 581.603C628.117 584.748 643.624 592.775 623.446 594.78C606.325 596.481 593.346 591.62 577.119 589.275C562.082 586.977 546.987 585.059 531.852 583.528C467.438 577.328 402.589 577.021 338.117 582.612C321.82 584.024 305.56 585.837 289.351 588.045C284.542 588.66 279.584 589.047 274.806 589.742L222 597.968C211.78 599.572 201.917 601.91 191.477 602.069C187.957 602.12 179.579 604.722 176.847 600.907L177.053 600.176C180.483 596.318 199.82 593.148 205.551 592.362C210.927 591.975 216.661 590.021 222.101 589.3C249.969 585.605 277.578 580.716 305.497 577.448C325.787 575.077 345.261 573.836 365.615 572.797C369.491 572.602 396.887 571.928 398.385 570.72L397.976 570.626L398.537 570.904L398.606 570.712C395.672 569.706 389.231 570.014 385.979 570.224C332.685 573.669 279.04 575.294 226.142 582.92C223.715 583.271 221.304 583.864 218.901 584.349C202.887 587.947 186.594 590.296 170.742 594.595C169.163 595.026 171.053 596.036 170.102 597.769C166.882 599.195 157.754 601.142 155.73 597.158C155.825 596.115 155.957 595.435 156.747 594.657C160.064 591.385 165.414 590.216 169.451 587.99C170.889 587.198 172.582 584.874 174.045 584.462C177.071 583.611 180.824 583.13 183.963 582.612C188.859 581.809 193.739 580.904 198.597 579.894C224.884 574.35 249.443 570.803 275.984 567.39C322.037 561.133 368.43 557.723 414.906 557.188ZM599.012 584.885L599.515 585.044C601.929 585.79 611.64 587.947 613.724 587.151L613.753 586.637C610.041 583.126 585.817 577.643 580.158 577.759C564.22 578.088 548.825 575.522 532.977 574.125C494.458 570.723 456.435 568.541 417.721 569.457C414.178 569.533 403.074 569.265 400.393 570.477L400.552 570.901C404.847 571.682 410.607 571.386 415.069 571.397C426.889 571.418 438.695 570.915 450.508 570.651C454.434 570.564 458.631 571.292 462.586 571.36C471.678 571.61 481.049 571.842 490.091 572.866C497.461 573.698 504.962 573.347 512.213 574.183C526.222 575.805 540.221 576.97 554.281 578.077C558.493 578.407 562.762 579.236 566.97 579.67C575.556 580.343 583.928 581.682 592.373 583.347C594.497 583.763 596.972 584.176 599.012 584.885ZM357.203 567.495C368.524 567.224 379.806 566.768 391.124 566.485C394.876 566.391 399.062 565.642 402.814 565.675C408.516 565.718 414.233 566.174 419.953 566.257C430.677 566.315 441.405 566.098 452.119 565.602C442.852 564.147 429.263 564.723 419.57 564.527C413.252 564.401 402.296 563.699 396.366 564.372C392.01 564.799 387.596 564.665 383.221 564.73C362.667 565.03 342.11 567.025 321.62 568.581C316.148 568.993 306.966 569.746 301.804 571.15C306.991 571.165 311.937 570.365 317.06 570.166C324.775 569.866 332.396 569.467 340.1 568.957C345.524 568.595 351.858 567.462 357.203 567.495ZM537.746 569.265C535.673 568.805 530.597 568.907 528.263 568.885C523.968 568.313 519.547 568.588 515.169 568.299C512.672 568.132 511.037 567.151 508.949 567.586C511.134 568.787 520.701 569.667 522.77 569.203C525.025 569.439 527.89 569.822 530.112 569.902C540.376 570.854 553.044 573.467 562.809 574.096C555.215 570.962 545.916 569.735 537.746 569.265ZM547.435 583.593L548.014 583.148C547.638 581.512 540.843 580.466 539.229 580.499L538.292 581.407C539.222 582.764 545.605 583.405 547.435 583.593ZM487.993 565.49L488.275 565.975C490.117 566.337 492.03 566.55 493.908 566.257C492.584 564.951 489.769 565.276 487.993 565.49ZM465.412 564.404C466.899 565.121 472.985 565.204 474.667 564.81C473.184 564.288 466.562 563.633 465.412 564.404ZM531.364 581.686L531.28 580.709C530.036 579.717 526.671 579.456 524.811 578.772L524.5 580.184C525.871 581.845 529.254 581.66 531.364 581.686ZM295.133 570.901C293.712 570.973 292.535 570.817 291.522 571.69L291.669 572.185C293.46 572.88 294.47 572.432 296.413 571.972C297.721 571.856 299.063 571.907 300.113 571.223C299.208 570.542 296.133 570.55 295.133 570.901ZM497.841 566.17C499.723 567.448 504.882 567.814 507.118 567.281C505.609 566.192 499.817 565.769 497.841 566.17Z" fill="#94C9DF"/>
<path d="M455.071 575.826C457.441 575.638 458.892 575.385 461.008 576.633C461.298 577.759 461.471 577.477 461.106 578.135L460.321 578.248C458.675 578.284 455.342 578.62 454.09 577.925C454.148 576.738 454.246 576.985 455.071 575.826Z" fill="#ABD2E6"/>
<path d="M522.77 569.203C520.701 569.667 511.134 568.787 508.949 567.586C511.037 567.151 512.672 568.132 515.169 568.299C519.547 568.588 523.968 568.313 528.263 568.885C526.91 568.925 523.975 568.939 522.77 569.203Z" fill="#ABD2E6" fill-opacity="0.6"/>
<path d="M295.133 570.901C296.133 570.55 299.208 570.543 300.113 571.223C299.063 571.907 297.721 571.856 296.413 571.972C294.47 572.432 293.46 572.881 291.668 572.186L291.522 571.69C292.535 570.818 293.712 570.973 295.133 570.901Z" fill="#ABD2E6" fill-opacity="0.988235"/>
<path d="M497.841 566.171C499.817 565.769 505.61 566.192 507.118 567.282C504.882 567.814 499.723 567.448 497.841 566.171Z" fill="#ABD2E6" fill-opacity="0.0313725"/>
<path d="M528.263 568.885C530.597 568.907 535.673 568.805 537.746 569.265C535.709 569.37 531.44 569.106 530.112 569.902C527.89 569.822 525.025 569.439 522.771 569.203C523.975 568.939 526.91 568.925 528.263 568.885Z" fill="#94C9DF" fill-opacity="0.113725"/>
<path d="M465.412 564.404C466.562 563.634 473.183 564.289 474.667 564.81C472.984 565.204 466.899 565.121 465.412 564.404Z" fill="#ABD2E6" fill-opacity="0.807843"/>
<path d="M487.993 565.49C489.769 565.277 492.584 564.951 493.908 566.257C492.031 566.551 490.117 566.337 488.275 565.975L487.993 565.49Z" fill="#ABD2E6" fill-opacity="0.0901961"/>
<path d="M132.03 531.684C131.044 531.702 130.834 531.705 129.814 531.561C129.878 530.753 130.312 528.944 129.85 528.253C117.942 510.443 113.181 487.895 105.669 467.921C103.397 461.881 102.115 455.5 100.179 449.42L72.0446 357.996C71.262 355.436 70.0669 352.898 69.3527 350.372C65.4038 336.405 61.3453 322.232 55.4586 308.959C54.8598 306.796 55.1579 304.302 54.6459 302.152C54.244 300.463 53.3524 298.724 52.911 296.998C50.5675 287.842 46.432 279.424 44.9008 270.054C44.6877 268.75 42.8391 267.798 42.5019 266.566C41.3286 262.277 40.7493 257.839 39.6378 253.543C39.2253 251.972 36.7805 248.527 36.1545 246.664C34.9989 243.224 34.8086 239.716 33.4839 236.271C32.803 234.501 30.573 231.759 30.0296 230.066C27.5856 222.458 24.9334 214.997 23.586 207.084C23.4054 206.049 24.6876 205.015 24.3055 204.052C23.5974 202.268 23.0491 200.582 22.6592 198.699C21.3365 192.312 19.1599 186.149 17.786 179.764C16.1723 172.264 11.1886 166.273 16.9048 159.214C17.8926 159.292 18.6575 159.415 19.6367 159.575L20.0097 159.2C17.903 156.066 14.3207 150.222 12.5421 146.715C12.3412 146.319 12.3302 143.462 12.9309 142.602C13.6277 143.261 13.3331 142.87 13.4999 144.091C13.3869 147.407 22.2054 159.7 24.9725 162.68C27.7325 165.652 29.6239 166.614 32.4819 168.966C32.1178 172.482 31.9644 173.494 33.0166 176.889C31.7682 177.017 31.2282 176.985 30.1172 177.51C28.838 173.479 23.8538 159.752 17.7948 161.42C11.7253 166.538 30.462 212.762 29.8786 221.715C29.6429 225.332 31.5709 228.427 32.9655 231.739C47.5637 273.999 61.0519 317.518 74.1004 360.275L101.318 448.385C109.39 474.009 116.651 501.116 129.259 525.039C130.077 526.591 132.656 529.581 132.538 530.985L132.03 531.684Z" fill="#6D8C9D" fill-opacity="0.027451"/>
<path d="M729.154 146.571L729.57 147.585L730.479 147.882C724.429 149.855 722.424 164.025 717.913 169.673C719.244 164.392 720.605 161.039 723.181 156.244C723.369 155.888 722.526 152.783 722.504 151.848C724.639 150.133 726.962 148.171 729.154 146.571Z" fill="#94C9DF" fill-opacity="0.0156863"/>
<path d="M36.7359 189.575C36.7971 189.72 39.6898 200.153 39.6884 200.14C39.0179 199.508 35.641 191.278 34.8564 189.6C35.8373 189.831 35.7654 189.838 36.7359 189.575Z" fill="#94C9DF" fill-opacity="0.0588235"/>
</svg>
